<?xml version="1.0" encoding="utf-8"?>
<!-- Generator: Adobe Illustrator 17.1.0, SVG Export Plug-In . SVG Version: 6.00 Build 0)  -->
<!DOCTYPE svg PUBLIC "-//W3C//DTD SVG 1.1//EN" "http://www.w3.org/Graphics/SVG/1.1/DTD/svg11.dtd">
<svg version="1.1" id="Layer_1" xmlns="http://www.w3.org/2000/svg" xmlns:xlink="http://www.w3.org/1999/xlink" x="0px" y="0px"
	 viewBox="0 0 102.8 31.7" enable-background="new 0 0 102.8 31.7" xml:space="preserve">
<path fill-rule="evenodd" clip-rule="evenodd" fill="#007BC4" d="M0,24.7L1,22c0.4,0.3,1,0.5,1.7,0.7C3.3,22.9,4.1,23,5.1,23
	c0.5,0,0.9,0,1.2-0.1c0.3-0.1,0.6-0.2,0.8-0.3c0.2-0.1,0.3-0.3,0.4-0.5c0.1-0.2,0.1-0.4,0.1-0.7c0-0.5-0.2-1-0.7-1.3
	c-0.5-0.3-1.3-0.7-2.5-1.1c-0.5-0.2-1-0.4-1.5-0.6C2.4,18,2,17.7,1.6,17.4C1.2,17,0.9,16.6,0.7,16c-0.2-0.5-0.4-1.1-0.4-1.9
	c0-0.7,0.1-1.4,0.4-2c0.3-0.6,0.6-1.1,1.1-1.5c0.5-0.4,1.1-0.7,1.7-0.9C4.2,9.6,5,9.5,5.9,9.5c1,0,1.9,0.1,2.6,0.3
	c0.7,0.2,1.3,0.4,1.8,0.7l-0.9,2.8c-0.4-0.3-0.9-0.5-1.4-0.7c-0.5-0.2-1.1-0.3-1.9-0.3c-0.9,0-1.5,0.1-1.8,0.4
	c-0.4,0.3-0.6,0.7-0.6,1.2c0,0.3,0.1,0.5,0.2,0.7C4,14.8,4.2,15,4.5,15.2c0.2,0.2,0.5,0.3,0.9,0.4C5.7,15.7,6,15.9,6.4,16
	c0.8,0.3,1.5,0.6,2.1,0.9c0.6,0.3,1,0.6,1.4,1c0.4,0.4,0.6,0.9,0.8,1.4c0.2,0.5,0.3,1.2,0.3,2c0,1.4-0.5,2.5-1.5,3.3
	c-1,0.8-2.5,1.2-4.4,1.2c-0.7,0-1.3,0-1.8-0.1c-0.5-0.1-1-0.2-1.4-0.3c-0.4-0.1-0.8-0.2-1.1-0.4C0.5,24.9,0.2,24.8,0,24.7 M74.7,3.2
	H81c2.1,0.7,4.2,1.7,6.3,3c6.6,3.9,11.2,9.2,12.7,14.1c-1.7,5.2-6.6,8.9-12.3,8.9h-5.4c7.9,2.5,15.1,1.6,17.6-2.8
	c2.4-4.2-0.1-10.5-5.7-15.8c-1.9-1.7-4.2-3.4-6.6-4.8c-1.4-0.8-2.8-1.5-4.1-2.2c-9.1-3.9-17.9-3.4-20.7,1.6c-0.8,1.3-1,2.9-0.9,4.5
	h3.7v2.9h-3.1c1.6,5,7.7,10.3,12.2,13.1V9.9c3.7,0.7,6.5,4,6.6,7.9h0v4.8h6.4c3.5,0,6.4-2.9,6.4-6.4c0-3.5-2.8-6.3-6.3-6.4v0H74.7
	V3.2z M80.7,29.2h-0.2c-1.7-0.7-3.4-1.5-5.1-2.5c-0.2-0.1-0.4-0.3-0.6-0.4v0c-5.3-3.1-11.1-8-13.7-13.7h-0.4v12.8h-3.4V12.7h-4.9
	V9.8h7.3c0.2,0.6,0.5,1.2,0.8,1.6c-1-2.7-0.9-5.2,0.2-7.2c3-5.3,12.9-5.5,23.1-0.9h3.9c7.1,0,13,5.8,13,13c0,0.3,0,0.6,0,0.9
	c2.3,3.8,2.9,7.5,1.3,10.3C99.1,32.5,90.2,33,80.7,29.2 M79.1,29.2h-4.4v-2.3c0.1,0.1,0.3,0.2,0.4,0.2
	C76.4,27.9,77.8,28.6,79.1,29.2 M40.6,25.5V10c0.7-0.1,1.5-0.2,2.3-0.3c0.8-0.1,1.5-0.1,2.1-0.1c2.3,0,4,0.4,5.2,1.2
	c1.2,0.8,1.8,2.1,1.8,3.8c0,1.1-0.2,2.1-0.7,2.8c-0.5,0.7-1.1,1.3-2,1.7c0.3,0.4,0.6,0.8,1,1.3c0.3,0.5,0.7,1,1,1.6
	c0.3,0.5,0.7,1.1,1,1.7c0.3,0.6,0.6,1.2,0.9,1.7h-4L48.5,24c-0.3-0.5-0.6-1-0.9-1.5L46.6,21c-0.3-0.4-0.6-0.8-0.9-1.2H44v5.7H40.6z
	 M44,17h1c1.3,0,2.3-0.2,2.9-0.5c0.6-0.3,0.9-0.9,0.9-1.8c0-0.8-0.3-1.4-0.9-1.7c-0.6-0.3-1.4-0.5-2.6-0.5c-0.3,0-0.5,0-0.7,0
	c-0.2,0-0.4,0-0.6,0V17z M24.4,17.6c0-1.3,0.2-2.5,0.6-3.5c0.4-1,1-1.9,1.7-2.6c0.7-0.7,1.5-1.2,2.4-1.6C30,9.6,31,9.5,32,9.5
	c1,0,2,0.2,2.9,0.5c0.9,0.3,1.7,0.9,2.4,1.6c0.7,0.7,1.2,1.6,1.6,2.6c0.4,1,0.6,2.2,0.6,3.5c0,1.3-0.2,2.5-0.6,3.5
	c-0.4,1-0.9,1.9-1.6,2.6c-0.7,0.7-1.5,1.2-2.4,1.6c-0.9,0.4-1.9,0.5-3,0.5c-1,0-2-0.2-2.9-0.5c-0.9-0.4-1.7-0.9-2.4-1.6
	c-0.7-0.7-1.2-1.5-1.6-2.6C24.6,20.2,24.4,19,24.4,17.6 M27.8,17.6c0,0.8,0.1,1.5,0.3,2.2c0.2,0.7,0.5,1.2,0.8,1.7
	c0.4,0.5,0.8,0.8,1.3,1.1c0.5,0.3,1.1,0.4,1.8,0.4c0.6,0,1.2-0.1,1.8-0.4c0.5-0.3,1-0.6,1.3-1.1c0.4-0.5,0.6-1,0.8-1.7
	c0.2-0.7,0.3-1.4,0.3-2.2c0-0.8-0.1-1.5-0.3-2.2c-0.2-0.7-0.5-1.2-0.8-1.7c-0.4-0.5-0.8-0.8-1.3-1.1c-0.5-0.3-1.1-0.4-1.8-0.4
	c-0.7,0-1.3,0.1-1.8,0.4c-0.5,0.3-1,0.6-1.3,1.1c-0.4,0.5-0.6,1-0.8,1.7C27.9,16.1,27.8,16.9,27.8,17.6 M12.2,25.5V10
	c0.7-0.1,1.5-0.2,2.4-0.3c0.8-0.1,1.6-0.1,2.2-0.1c2.3,0,4,0.4,5.2,1.2c1.2,0.8,1.8,2.1,1.8,4c0,1.9-0.6,3.2-1.8,4
	c-1.2,0.8-3,1.2-5.3,1.2h-1.1v5.4H12.2z M15.6,17.2h1.1c1.2,0,2.2-0.2,2.8-0.5c0.6-0.3,0.9-1,0.9-1.9c0-0.4-0.1-0.8-0.2-1.1
	c-0.2-0.3-0.4-0.5-0.7-0.7c-0.3-0.2-0.7-0.3-1.1-0.4c-0.4-0.1-0.9-0.1-1.4-0.1c-0.3,0-0.5,0-0.8,0c-0.2,0-0.5,0-0.6,0V17.2z"/>
<path fill-rule="evenodd" clip-rule="evenodd" fill="#85C447" d="M66.9,18.7V9.9h6.4v14.4C71.5,23,69,20.9,66.9,18.7 M73.3,3.2H67
	c0.6,3.3,3.1,5.9,6.4,6.5V3.2z M66.9,21.2v8h6.4v-3.1C70.9,24.6,68.8,22.9,66.9,21.2"/>
</svg>
